<svg xmlns="http://www.w3.org/2000/svg" width="933.333" height="933.333" preserveAspectRatio="xMidYMid meet" version="1.0" viewBox="0 0 700 700"><metadata>Created by potrace 1.11, written by Peter Selinger 2001-2013</metadata><g fill="#000" stroke="none"><path d="M3989 4693 c-881 -1539 -891 -1555 -905 -1560 -6 -2 -33 39 -62 91 -95 177 -725 1271 -741 1289 -16 16 -67 17 -868 15 l-851 -3 590 -1030 c324 -566 693 -1210 821 -1430 127 -220 251 -440 274 -488 58 -119 112 -196 207 -295 133 -138 271 -216 450 -253 295 -61 555 28 796 272 129 131 181 207 372 544 143 252 1375 2404 2117 3698 138 241 251 440 251 442 0 3 -384 5 -854 5 l-854 0 -743 -1297z" transform="translate(0.000000,700.000000) scale(0.100000,-0.100000)"/></g></svg>